<svg xmlns="http://www.w3.org/2000/svg" version="1.1" xmlns:xlink="http://www.w3.org/1999/xlink" xmlns:svgjs="http://svgjs.dev/svgjs" width="1440" height="560" preserveAspectRatio="none" viewBox="0 0 1440 560"><g clip-path="url(&quot;#SvgjsClipPath1023&quot;)" fill="none"><rect width="1440" height="560" x="0" y="0" fill="url(&quot;#SvgjsLinearGradient1024&quot;)"></rect><path d="M21.27 49.01Q28.81 51.1 36.36 53.19 43.9 55.25 51.44 57.32 58.99 59.36 66.53 61.4 74.07 63.39 81.62 65.39 89.16 67.34 96.7 69.29 104.25 71.18 111.79 73.07 119.33 74.9 126.88 76.73 134.42 78.48 141.96 80.23 149.51 81.91 157.05 83.58" stroke="rgba(255, 128, 64, 1)" stroke-width="4"></path><path d="M189.37 90.14Q197.49 91.62 205.62 93.1 213.74 94.45 221.86 95.8 229.99 97.02 238.11 98.24" stroke="rgba(0, 27, 183, 1)" stroke-width="4"></path><path d="M272.97 102.52Q281.04 103.28 289.11 104.04 297.18 104.65 305.25 105.26 313.32 105.72 321.39 106.17 329.46 106.47 337.54 106.77 345.61 106.91 353.68 107.05 361.75 107.04 369.82 107.02 377.89 106.84 385.96 106.67 394.03 106.33 402.1 106" stroke="rgba(0, 27, 183, 1)" stroke-width="4"></path><path d="M431.98 103.95Q439.82 103.2 447.66 102.45 455.5 101.57 463.33 100.68 471.17 99.66 479.01 98.64 486.85 97.49 494.69 96.34 502.52 95.06 510.36 93.79 518.2 92.4 526.04 91" stroke="rgba(0, 27, 183, 1)" stroke-width="4"></path><path d="M565.92 82.94Q573.77 81.17 581.63 79.41 589.48 77.57 597.33 75.72 605.18 73.8 613.04 71.87 620.89 69.88 628.74 67.89 636.6 65.84 644.45 63.8 652.3 61.7 660.15 59.6 668.01 57.46 675.86 55.33 683.71 53.16 691.56 51 699.42 48.81 707.27 46.63" stroke="rgba(255, 128, 64, 1)" stroke-width="4"></path><path d="M726.76 41.19Q734.41 39.06 742.05 36.93 749.7 34.81 757.35 32.69 765 30.6 772.64 28.5 780.29 26.44 787.94 24.38" stroke="rgba(255, 128, 64, 1)" stroke-width="4"></path><path d="M807.64 19.2Q816.03 17.06 824.42 14.91 832.82 12.85 841.21 10.79 849.6 8.81 857.99 6.83" stroke="rgba(0, 70, 255, 1)" stroke-width="4"></path><path d="M893.19-0.81Q900.95-2.34 908.71-3.87 916.47-5.28 924.24-6.7 932-8.01 939.76-9.31 947.52-10.49 955.28-11.68 963.04-12.74 970.8-13.8 978.57-14.72 986.33-15.65 994.09-16.44 1001.85-17.24 1009.61-17.89 1017.37-18.55 1025.13-19.06 1032.89-19.58 1040.66-19.95 1048.42-20.32 1056.18-20.54 1063.94-20.77" stroke="rgba(0, 27, 183, 1)" stroke-width="4"></path><path d="M1075.42-20.91Q1083.65-20.87 1091.88-20.84 1100.12-20.64 1108.35-20.43 1116.58-20.07 1124.81-19.7 1133.04-19.18 1141.27-18.65 1149.51-17.96 1157.74-17.28 1165.97-16.43 1174.2-15.59" stroke="rgba(0, 27, 183, 1)" stroke-width="4"></path><path d="M1185.69-14.24Q1193.87-13.15 1202.04-12.06 1210.22-10.83 1218.39-9.61 1226.57-8.24 1234.74-6.88 1242.91-5.39 1251.09-3.9 1259.27-2.29 1267.44-0.69 1275.62 1.03 1283.79 2.75 1291.97 4.58 1300.14 6.4 1308.32 8.32 1316.49 10.23" stroke="rgba(255, 128, 64, 1)" stroke-width="4"></path><path d="M1346.09 17.58Q1351.31 18.93 1356.52 20.28 1361.74 21.65 1366.96 23.02 1372.18 24.42 1377.39 25.81 1382.61 27.22 1387.83 28.63 1393.05 30.06 1398.26 31.49 1403.48 32.92 1408.7 34.36 1413.91 35.81 1419.13 37.26 1424.35 38.71 1429.57 40.16 1434.78 41.62 1440 43.08" stroke="rgba(0, 70, 255, 1)" stroke-width="4"></path><path d="M14.37 90.16Q15.46 90.47 16.56 90.77 17.66 91.08 18.75 91.38 19.84 91.69 20.94 91.99" stroke="rgba(0, 70, 255, 1)" stroke-width="4"></path><path d="M36.54 96.31Q37.71 96.64 38.88 96.96 40.05 97.28 41.21 97.6 42.38 97.92 43.55 98.24" stroke="rgba(255, 128, 64, 1)" stroke-width="4"></path><path d="M77.37 107.35Q79.45 107.9 81.53 108.44 83.61 108.99 85.68 109.53 87.76 110.07 89.84 110.6" stroke="rgba(255, 128, 64, 1)" stroke-width="4"></path><path d="M128.34 120.15Q135.95 121.91 143.56 123.67 151.17 125.35 158.78 127.03 166.39 128.62 174 130.21 181.61 131.7 189.22 133.19 196.83 134.58 204.44 135.97 212.05 137.25 219.67 138.53 227.28 139.69 234.89 140.85 242.5 141.89 250.11 142.94 257.72 143.85 265.33 144.77 272.94 145.56 280.55 146.35 288.16 147 295.77 147.66 303.38 148.18 310.99 148.7" stroke="rgba(255, 128, 64, 1)" stroke-width="4"></path><path d="M334.05 149.74Q343.53 149.93 353.01 150.12 362.49 150.1 371.97 150.07 381.45 149.82 390.93 149.57" stroke="rgba(0, 70, 255, 1)" stroke-width="4"></path><path d="M408.65 148.72Q417.17 148.13 425.69 147.54 434.22 146.79 442.74 146.03 451.26 145.11 459.78 144.18 468.31 143.1 476.83 142.02 485.35 140.78 493.88 139.54 502.4 138.16 510.92 136.77" stroke="rgba(0, 27, 183, 1)" stroke-width="4"></path><path d="M526.57 133.98Q534.18 132.52 541.79 131.05 549.4 129.49 557.01 127.93 564.62 126.27 572.23 124.62 579.84 122.88 587.45 121.14 595.06 119.32 602.67 117.5 610.29 115.62 617.9 113.73 625.51 111.79 633.12 109.84 640.73 107.84 648.34 105.84 655.95 103.8 663.56 101.76 671.17 99.68 678.78 97.6" stroke="rgba(0, 70, 255, 1)" stroke-width="4"></path><path d="M699.19 91.96Q706.79 89.84 714.39 87.72 721.99 85.6 729.58 83.48 737.18 81.36 744.78 79.25 752.38 77.15 759.98 75.05 767.58 72.97 775.18 70.89 782.77 68.85 790.37 66.81 797.97 64.81 805.57 62.81 813.17 60.86 820.77 58.91 828.37 57.02 835.97 55.13 843.56 53.31 851.16 51.49 858.76 49.75 866.36 48" stroke="rgba(255, 128, 64, 1)" stroke-width="4"></path><path d="M905.61 39.8Q913.12 38.41 920.63 37.01 928.13 35.73 935.64 34.44 943.15 33.26 950.66 32.08 958.17 31.02 965.67 29.95 973.18 29.01 980.69 28.07 988.2 27.25 995.71 26.43 1003.21 25.74 1010.72 25.06 1018.23 24.5 1025.74 23.94 1033.25 23.51 1040.76 23.09 1048.26 22.8 1055.77 22.51 1063.28 22.36 1070.79 22.21 1078.3 22.19 1085.8 22.17 1093.31 22.3 1100.82 22.42" stroke="rgba(0, 70, 255, 1)" stroke-width="4"></path><path d="M1129.48 23.64Q1137.03 24.16 1144.58 24.68 1152.13 25.33 1159.68 25.98 1167.23 26.77 1174.78 27.55 1182.33 28.46 1189.88 29.37 1197.43 30.4 1204.99 31.44 1212.54 32.59 1220.09 33.74 1227.64 35.01 1235.19 36.27 1242.74 37.65 1250.29 39.02 1257.84 40.5 1265.39 41.98" stroke="rgba(0, 70, 255, 1)" stroke-width="4"></path><path d="M1302.78 50.08Q1310.63 51.94 1318.49 53.79 1326.34 55.72 1334.2 57.65 1342.05 59.64 1349.9 61.64 1357.76 63.69 1365.61 65.74" stroke="rgba(0, 27, 183, 1)" stroke-width="4"></path><path d="M1395.87 73.91Q1399.02 74.77 1402.17 75.64 1405.33 76.51 1408.48 77.38 1411.63 78.25 1414.78 79.13 1417.93 80 1421.09 80.88 1424.24 81.76 1427.39 82.63 1430.54 83.51 1433.7 84.39 1436.85 85.27 1440 86.15" stroke="rgba(255, 128, 64, 1)" stroke-width="4"></path><path d="M25.63 136.37Q31.17 137.91 36.72 139.44 42.26 140.96 47.8 142.48 53.35 143.99 58.89 145.5" stroke="rgba(0, 70, 255, 1)" stroke-width="4"></path><path d="M73.2 149.33Q81.49 151.49 89.77 153.66 98.06 155.77 106.34 157.87 114.63 159.9 122.91 161.93 131.2 163.88 139.49 165.82 147.77 167.67 156.06 169.52 164.34 171.26 172.63 173.01" stroke="rgba(0, 70, 255, 1)" stroke-width="4"></path><path d="M210.65 180.12Q213.54 180.6 216.42 181.08 219.31 181.54 222.19 182 225.07 182.45 227.96 182.9" stroke="rgba(255, 128, 64, 1)" stroke-width="4"></path><path d="M261.11 187.36Q268.35 188.15 275.58 188.94 282.81 189.61 290.05 190.27 297.28 190.82 304.52 191.36" stroke="rgba(255, 128, 64, 1)" stroke-width="4"></path><path d="M322.36 192.37Q329.95 192.65 337.54 192.92 345.13 193.06 352.72 193.2 360.3 193.2 367.89 193.19 375.48 193.05 383.07 192.91 390.66 192.62 398.25 192.34 405.84 191.92 413.43 191.5 421.02 190.94 428.6 190.38 436.19 189.69 443.78 189 451.37 188.18 458.96 187.36" stroke="rgba(0, 27, 183, 1)" stroke-width="4"></path><path d="M487.4 183.59Q495.59 182.32 503.79 181.04 511.98 179.63 520.18 178.23 528.38 176.69 536.57 175.16 544.76 173.51 552.96 171.86 561.15 170.1 569.35 168.34 577.54 166.48 585.74 164.62" stroke="rgba(0, 27, 183, 1)" stroke-width="4"></path><path d="M597.9 161.74Q605.8 159.8 613.69 157.86 621.59 155.86 629.49 153.85 637.39 151.79 645.28 149.73 653.18 147.62 661.08 145.5 668.98 143.35 676.87 141.2 684.77 139.02 692.67 136.84 700.57 134.65 708.46 132.45 716.36 130.25 724.26 128.04 732.16 125.84 740.05 123.64 747.95 121.45 755.85 119.26 763.75 117.1 771.64 114.93 779.54 112.8 787.44 110.67" stroke="rgba(0, 27, 183, 1)" stroke-width="4"></path><path d="M809.86 104.78Q817.39 102.86 824.93 100.94 832.46 99.09 840 97.23 847.53 95.44 855.07 93.66 862.6 91.95 870.14 90.24 877.67 88.61 885.21 86.99 892.74 85.45 900.28 83.92 907.81 82.48 915.35 81.05 922.88 79.72 930.42 78.38 937.95 77.16 945.49 75.94" stroke="rgba(0, 70, 255, 1)" stroke-width="4"></path><path d="M965.16 73.1Q972.75 72.14 980.34 71.19 987.94 70.36 995.53 69.53 1003.12 68.83 1010.71 68.13 1018.31 67.57 1025.9 67.01 1033.49 66.58 1041.08 66.15 1048.67 65.86 1056.27 65.57 1063.86 65.42 1071.45 65.28 1079.04 65.27 1086.64 65.26 1094.23 65.39 1101.82 65.52 1109.41 65.79 1117.01 66.06 1124.6 66.47 1132.19 66.88" stroke="rgba(255, 128, 64, 1)" stroke-width="4"></path><path d="M1168.11 69.9Q1175.93 70.79 1183.75 71.68 1191.57 72.7 1199.39 73.72 1207.21 74.87 1215.04 76.02 1222.86 77.3 1230.68 78.57 1238.5 79.96 1246.32 81.36 1254.14 82.86 1261.96 84.36 1269.78 85.97 1277.6 87.58 1285.42 89.29 1293.24 90.99 1301.07 92.79 1308.89 94.58 1316.71 96.46 1324.53 98.33 1332.35 100.28 1340.17 102.23" stroke="rgba(0, 70, 255, 1)" stroke-width="4"></path><path d="M1356.86 106.52Q1362.06 107.89 1367.25 109.26 1372.45 110.64 1377.64 112.03 1382.84 113.44 1388.04 114.84 1393.23 116.26 1398.43 117.69 1403.63 119.12 1408.82 120.55 1414.02 121.99 1419.21 123.43 1424.41 124.88 1429.61 126.33 1434.8 127.78 1440 129.23" stroke="rgba(0, 70, 255, 1)" stroke-width="4"></path><path d="M2.57 173.03Q10.87 175.34 19.18 177.66 27.48 179.96 35.79 182.26 44.09 184.54 52.4 186.81 60.7 189.05 69 191.29 77.31 193.48 85.61 195.66 93.92 197.79 102.22 199.92" stroke="rgba(0, 70, 255, 1)" stroke-width="4"></path><path d="M136.37 208.18Q143.99 209.9 151.61 211.62 159.23 213.26 166.85 214.89 174.47 216.43 182.09 217.97 189.71 219.41 197.33 220.85 204.95 222.18 212.57 223.52 220.19 224.73 227.81 225.95 235.43 227.05 243.04 228.15 250.66 229.13 258.28 230.11 265.9 230.96 273.52 231.81 281.14 232.52 288.76 233.24 296.38 233.82 304 234.41 311.62 234.85 319.24 235.3 326.86 235.6 334.48 235.91" stroke="rgba(0, 70, 255, 1)" stroke-width="4"></path><path d="M373.02 236.2Q376.52 236.13 380.02 236.06 383.53 235.96 387.03 235.86 390.53 235.73 394.03 235.6" stroke="rgba(0, 70, 255, 1)" stroke-width="4"></path><path d="M419.25 234.18Q428.62 233.41 437.98 232.64 447.35 231.67 456.72 230.69 466.08 229.53 475.45 228.36" stroke="rgba(0, 27, 183, 1)" stroke-width="4"></path><path d="M513.04 222.56Q521.4 221.05 529.76 219.54 538.12 217.9 546.49 216.26 554.85 214.51 563.21 212.76 571.57 210.89 579.93 209.03 588.29 207.07 596.65 205.11 605.02 203.07 613.38 201.02 621.74 198.9 630.1 196.77" stroke="rgba(255, 128, 64, 1)" stroke-width="4"></path><path d="M669.46 186.31Q677.95 183.98 686.43 181.65 694.92 179.29 703.4 176.94 711.89 174.57 720.38 172.2 728.86 169.83 737.35 167.47" stroke="rgba(0, 70, 255, 1)" stroke-width="4"></path><path d="M768.77 158.79Q776.57 156.68 784.37 154.57 792.18 152.5 799.98 150.42 807.78 148.4 815.58 146.38 823.38 144.42 831.19 142.46 838.99 140.57 846.79 138.68 854.59 136.87 862.39 135.05 870.2 133.33 878 131.6 885.8 129.97 893.6 128.33 901.41 126.8 909.21 125.27 917.01 123.85 924.81 122.43 932.61 121.12 940.42 119.82 948.22 118.63 956.02 117.45" stroke="rgba(0, 27, 183, 1)" stroke-width="4"></path><path d="M983.55 113.89Q991.34 113.07 999.13 112.25 1006.92 111.57 1014.71 110.89 1022.5 110.35 1030.29 109.81 1038.08 109.41 1045.87 109.02 1053.66 108.77 1061.45 108.52 1069.25 108.42 1077.04 108.31 1084.83 108.36 1092.62 108.4 1100.41 108.6 1108.2 108.79 1115.99 109.13 1123.78 109.47 1131.57 109.96 1139.36 110.44" stroke="rgba(0, 70, 255, 1)" stroke-width="4"></path><path d="M1175.69 113.81Q1183.79 114.79 1191.88 115.78 1199.98 116.91 1208.07 118.04 1216.17 119.31 1224.26 120.57 1232.36 121.97 1240.45 123.36 1248.55 124.88 1256.64 126.4 1264.74 128.03 1272.83 129.66 1280.93 131.39 1289.03 133.13 1297.12 134.97 1305.22 136.8 1313.31 138.73 1321.41 140.65 1329.5 142.65 1337.6 144.65 1345.69 146.73 1353.79 148.8 1361.88 150.93 1369.98 153.06" stroke="rgba(0, 70, 255, 1)" stroke-width="4"></path><path d="M1400.75 161.4Q1405.66 162.76 1410.56 164.11 1415.47 165.47 1420.38 166.83 1425.28 168.2 1430.19 169.57 1435.09 170.94 1440 172.31" stroke="rgba(0, 27, 183, 1)" stroke-width="4"></path><path d="M25.94 222.61Q33.98 224.83 42.01 227.05 50.05 229.24 58.08 231.43 66.12 233.58 74.15 235.73 82.19 237.83 90.22 239.93 98.25 241.97 106.29 244.01 114.33 245.98 122.36 247.95 130.4 249.84 138.43 251.73 146.47 253.53 154.5 255.33 162.53 257.04 170.57 258.74 178.61 260.34 186.64 261.93 194.68 263.41 202.71 264.89 210.75 266.25 218.78 267.61" stroke="rgba(0, 27, 183, 1)" stroke-width="4"></path><path d="M244.15 271.38Q248.74 271.98 253.33 272.58 257.93 273.13 262.52 273.68 267.11 274.19 271.7 274.69" stroke="rgba(0, 70, 255, 1)" stroke-width="4"></path><path d="M300.39 277.23Q308.13 277.72 315.87 278.2 323.6 278.54 331.34 278.88 339.08 279.08 346.82 279.28 354.56 279.33 362.29 279.38 370.03 279.29 377.77 279.19 385.51 278.95 393.25 278.71 400.98 278.33 408.72 277.94 416.46 277.42 424.2 276.89 431.93 276.22 439.67 275.56 447.41 274.75 455.15 273.95 462.89 273.01 470.62 272.07 478.36 271.01 486.1 269.94" stroke="rgba(255, 128, 64, 1)" stroke-width="4"></path><path d="M525.81 263.35Q533.72 261.83 541.63 260.32 549.55 258.69 557.46 257.06 565.37 255.34 573.28 253.61 581.19 251.8 589.1 249.98 597.02 248.08 604.93 246.19 612.84 244.21 620.75 242.24 628.66 240.21 636.57 238.17 644.49 236.08 652.4 233.99 660.31 231.86 668.22 229.72" stroke="rgba(255, 128, 64, 1)" stroke-width="4"></path><path d="M689.72 223.82Q697.79 221.57 705.86 219.33 713.92 217.08 721.99 214.83 730.06 212.58 738.13 210.33 746.19 208.09 754.26 205.85 762.33 203.64 770.4 201.42 778.47 199.24 786.53 197.06 794.6 194.93 802.67 192.8 810.74 190.72 818.8 188.64 826.87 186.63 834.94 184.62" stroke="rgba(255, 128, 64, 1)" stroke-width="4"></path><path d="M857.52 179.25Q865.05 177.55 872.59 175.85 880.12 174.24 887.65 172.63 895.19 171.11 902.72 169.6 910.25 168.18 917.79 166.76 925.32 165.44 932.85 164.13 940.39 162.93 947.92 161.72 955.45 160.63 962.99 159.55 970.52 158.58 978.05 157.61 985.59 156.77 993.12 155.93" stroke="rgba(0, 70, 255, 1)" stroke-width="4"></path><path d="M1011.03 154.26Q1018.18 153.73 1025.33 153.2 1032.49 152.79 1039.64 152.37 1046.79 152.09 1053.94 151.8" stroke="rgba(0, 70, 255, 1)" stroke-width="4"></path><path d="M1088.38 151.43Q1093.39 151.51 1098.39 151.59 1103.4 151.73 1108.41 151.88 1113.41 152.08 1118.42 152.28" stroke="rgba(255, 128, 64, 1)" stroke-width="4"></path><path d="M1128.98 152.84Q1133.55 153.14 1138.11 153.43 1142.68 153.78 1147.25 154.12 1151.81 154.51 1156.38 154.91" stroke="rgba(0, 70, 255, 1)" stroke-width="4"></path><path d="M1177.55 157.1Q1185.34 158.06 1193.13 159.03 1200.92 160.12 1208.72 161.22 1216.51 162.44 1224.3 163.66 1232.09 165 1239.88 166.34 1247.67 167.79 1255.46 169.24 1263.26 170.8 1271.05 172.36 1278.84 174.02 1286.63 175.68" stroke="rgba(0, 27, 183, 1)" stroke-width="4"></path><path d="M1320.66 183.54Q1326.08 184.88 1331.51 186.21 1336.93 187.57 1342.36 188.94 1347.78 190.33 1353.21 191.72 1358.63 193.14 1364.06 194.56 1369.48 196.01 1374.91 197.45 1380.33 198.91 1385.75 200.38 1391.18 201.86 1396.6 203.34 1402.03 204.83 1407.45 206.33 1412.88 207.83 1418.3 209.33 1423.73 210.85 1429.15 212.36 1434.58 213.87 1440 215.38" stroke="rgba(255, 128, 64, 1)" stroke-width="4"></path><path d="M4.63 259.75Q13.16 262.13 21.7 264.51 30.23 266.87 38.76 269.24 47.3 271.57 55.83 273.9 64.36 276.19 72.9 278.48 81.43 280.71 89.97 282.94 98.5 285.11 107.03 287.28 115.57 289.36 124.1 291.45" stroke="rgba(255, 128, 64, 1)" stroke-width="4"></path><path d="M145.49 296.42Q153.94 298.26 162.39 300.11 170.84 301.84 179.29 303.58 187.74 305.19 196.19 306.8 204.65 308.28 213.1 309.76 221.55 311.1 230 312.44 238.45 313.63 246.9 314.83" stroke="rgba(0, 70, 255, 1)" stroke-width="4"></path><path d="M257.13 316.12Q263.33 316.83 269.53 317.54 275.74 318.16 281.94 318.78 288.14 319.32 294.34 319.85" stroke="rgba(0, 27, 183, 1)" stroke-width="4"></path><path d="M332.56 322Q340.47 322.19 348.37 322.38 356.28 322.42 364.18 322.45 372.09 322.33 380 322.22 387.9 321.95 395.81 321.68 403.71 321.26 411.62 320.85" stroke="rgba(255, 128, 64, 1)" stroke-width="4"></path><path d="M448.89 317.71Q456.68 316.82 464.47 315.93 472.26 314.9 480.05 313.88 487.84 312.73 495.63 311.58 503.42 310.3 511.2 309.03 518.99 307.64 526.78 306.25 534.57 304.75 542.36 303.25 550.15 301.64 557.94 300.04 565.73 298.34 573.52 296.64" stroke="rgba(255, 128, 64, 1)" stroke-width="4"></path><path d="M610.48 287.89Q611.55 287.63 612.62 287.36 613.69 287.09 614.77 286.83 615.84 286.56 616.91 286.29" stroke="rgba(0, 70, 255, 1)" stroke-width="4"></path><path d="M645.87 278.8Q655.12 276.32 664.36 273.85 673.61 271.32 682.86 268.79 692.1 266.23 701.35 263.66" stroke="rgba(255, 128, 64, 1)" stroke-width="4"></path><path d="M724.81 257.12Q732.77 254.9 740.73 252.68 748.68 250.48 756.64 248.27 764.6 246.09 772.56 243.91 780.51 241.77 788.47 239.62 796.43 237.52 804.39 235.42 812.35 233.38 820.3 231.34 828.26 229.36 836.22 227.38 844.18 225.48 852.13 223.57 860.09 221.75 868.05 219.93" stroke="rgba(255, 128, 64, 1)" stroke-width="4"></path><path d="M885.97 216.06Q894.93 214.25 903.9 212.44 912.86 210.78 921.83 209.11 930.79 207.59 939.75 206.08 948.72 204.72 957.68 203.36 966.65 202.17 975.61 200.99" stroke="rgba(0, 70, 255, 1)" stroke-width="4"></path><path d="M993.98 198.92Q1000.62 198.29 1007.26 197.66 1013.9 197.13 1020.55 196.6 1027.19 196.18 1033.83 195.76" stroke="rgba(0, 27, 183, 1)" stroke-width="4"></path><path d="M1056.77 194.79Q1065.4 194.64 1074.03 194.48 1082.66 194.51 1091.29 194.54 1099.92 194.75 1108.55 194.96 1117.18 195.35 1125.81 195.74 1134.44 196.3 1143.07 196.87 1151.7 197.61 1160.33 198.35" stroke="rgba(0, 70, 255, 1)" stroke-width="4"></path><path d="M1172.65 199.62Q1180.19 200.51 1187.72 201.4 1195.26 202.42 1202.8 203.43 1210.33 204.56 1217.87 205.7" stroke="rgba(0, 27, 183, 1)" stroke-width="4"></path><path d="M1253.4 211.92Q1261.31 213.49 1269.22 215.06 1277.13 216.74 1285.04 218.41 1292.95 220.18 1300.86 221.95 1308.76 223.8 1316.67 225.66 1324.58 227.59 1332.49 229.53 1340.4 231.53 1348.31 233.53 1356.22 235.6 1364.13 237.66" stroke="rgba(0, 70, 255, 1)" stroke-width="4"></path><path d="M1400.15 247.39Q1401.04 247.63 1401.93 247.88 1402.82 248.12 1403.71 248.37 1404.6 248.62 1405.49 248.86" stroke="rgba(0, 70, 255, 1)" stroke-width="4"></path><path d="M6.12 303.25Q14.7 305.64 23.29 308.03 31.87 310.4 40.45 312.78 49.04 315.12 57.62 317.46 66.2 319.76 74.79 322.05 83.37 324.29 91.95 326.53 100.54 328.7 109.12 330.87" stroke="rgba(255, 128, 64, 1)" stroke-width="4"></path><path d="M123.29 334.33Q130.82 336.1 138.34 337.87 145.87 339.56 153.4 341.25 160.92 342.85 168.45 344.46 175.98 345.97 183.51 347.48 191.03 348.89 198.56 350.31 206.09 351.61 213.61 352.92 221.14 354.12 228.67 355.31 236.19 356.4 243.72 357.48" stroke="rgba(255, 128, 64, 1)" stroke-width="4"></path><path d="M276.8 361.37Q285.92 362.18 295.04 362.98 304.15 363.6 313.27 364.21 322.39 364.63 331.5 365.04 340.62 365.26 349.74 365.47" stroke="rgba(0, 27, 183, 1)" stroke-width="4"></path><path d="M377.56 365.35Q385.36 365.11 393.16 364.87 400.97 364.48 408.77 364.09 416.57 363.56 424.37 363.03 432.18 362.36 439.98 361.68 447.78 360.87 455.58 360.05 463.38 359.1 471.19 358.15 478.99 357.07 486.79 355.99 494.59 354.78 502.4 353.58 510.2 352.25 518 350.92" stroke="rgba(0, 27, 183, 1)" stroke-width="4"></path><path d="M546.18 345.56Q550.79 344.6 555.4 343.65 560 342.67 564.61 341.68 569.22 340.66 573.83 339.65" stroke="rgba(255, 128, 64, 1)" stroke-width="4"></path><path d="M589.94 335.94Q596.25 334.43 602.57 332.91 608.88 331.35 615.2 329.79 621.51 328.19 627.83 326.59" stroke="rgba(255, 128, 64, 1)" stroke-width="4"></path><path d="M658.63 318.47Q659.62 318.2 660.61 317.94 661.6 317.67 662.6 317.4 663.59 317.13 664.58 316.86" stroke="rgba(0, 27, 183, 1)" stroke-width="4"></path><path d="M680.32 312.56Q684.45 311.42 688.58 310.29 692.7 309.14 696.83 308 700.96 306.85 705.09 305.7" stroke="rgba(0, 27, 183, 1)" stroke-width="4"></path><path d="M730.08 298.72Q738.61 296.35 747.13 293.98 755.66 291.63 764.19 289.27 772.72 286.96 781.24 284.64 789.77 282.37 798.3 280.1 806.82 277.88 815.35 275.67 823.88 273.53 832.41 271.39 840.93 269.34 849.46 267.28" stroke="rgba(0, 27, 183, 1)" stroke-width="4"></path><path d="M865.99 263.47Q874.87 261.54 883.75 259.6 892.63 257.79 901.51 255.99 910.39 254.31 919.27 252.64 928.15 251.12 937.03 249.59 945.91 248.22 954.79 246.85" stroke="rgba(0, 27, 183, 1)" stroke-width="4"></path><path d="M989.25 242.49Q995.84 241.83 1002.44 241.17 1009.03 240.61 1015.63 240.05 1022.22 239.59 1028.82 239.13" stroke="rgba(0, 70, 255, 1)" stroke-width="4"></path><path d="M1038.89 238.57Q1046.45 238.26 1054 237.95 1061.56 237.78 1069.12 237.61 1076.68 237.58 1084.23 237.55 1091.79 237.66 1099.35 237.77 1106.91 238.01 1114.46 238.26 1122.02 238.65 1129.58 239.03" stroke="rgba(0, 70, 255, 1)" stroke-width="4"></path><path d="M1147.81 240.32Q1156.28 241.09 1164.74 241.86 1173.21 242.8 1181.68 243.73 1190.15 244.83 1198.61 245.92 1207.08 247.17 1215.55 248.41 1224.02 249.8 1232.48 251.19 1240.95 252.72 1249.42 254.24" stroke="rgba(0, 27, 183, 1)" stroke-width="4"></path><path d="M1271.46 258.6Q1279.73 260.37 1288 262.14 1296.27 264.01 1304.54 265.87 1312.81 267.84 1321.08 269.8 1329.35 271.84 1337.61 273.89 1345.88 276.01 1354.15 278.12 1362.42 280.3 1370.69 282.48 1378.96 284.71 1387.23 286.93 1395.5 289.2 1403.77 291.46" stroke="rgba(0, 70, 255, 1)" stroke-width="4"></path><path d="M2.73 345.38Q10.99 347.68 19.25 349.98 27.5 352.27 35.76 354.56 44.02 356.82 52.28 359.09 60.54 361.31 68.8 363.54 77.05 365.72 85.31 367.89 93.57 370.01 101.83 372.12 110.09 374.17 118.34 376.21 126.6 378.18 134.86 380.14" stroke="rgba(0, 70, 255, 1)" stroke-width="4"></path><path d="M161.45 386.06Q169.57 387.74 177.7 389.41 185.82 390.98 193.95 392.54 202.07 393.98 210.2 395.42 218.32 396.74 226.45 398.05 234.57 399.23 242.7 400.41 250.82 401.45 258.95 402.49" stroke="rgba(0, 70, 255, 1)" stroke-width="4"></path><path d="M282.06 404.95Q289.97 405.61 297.87 406.28 305.77 406.8 313.68 407.31 321.59 407.68 329.49 408.05 337.39 408.27 345.3 408.48 353.21 408.55 361.11 408.61 369.01 408.53 376.92 408.44 384.83 408.2 392.73 407.96" stroke="rgba(255, 128, 64, 1)" stroke-width="4"></path><path d="M403.65 407.46Q405.81 407.34 407.97 407.22 410.13 407.09 412.29 406.96 414.45 406.81 416.61 406.67" stroke="rgba(0, 70, 255, 1)" stroke-width="4"></path><path d="M432.68 405.42Q440.06 404.72 447.44 404.01 454.83 403.18 462.21 402.36 469.59 401.41 476.97 400.46" stroke="rgba(0, 70, 255, 1)" stroke-width="4"></path><path d="M492.03 398.29Q498.51 397.26 505 396.23 511.48 395.12 517.96 394.01 524.45 392.82 530.93 391.63" stroke="rgba(0, 70, 255, 1)" stroke-width="4"></path><path d="M540.94 389.68Q548.67 388.1 556.4 386.52 564.13 384.84 571.87 383.16 579.6 381.4 587.33 379.63 595.06 377.78 602.79 375.94 610.53 374.02 618.26 372.1 625.99 370.12 633.72 368.14 641.45 366.11 649.18 364.08 656.91 362 664.65 359.92 672.38 357.81 680.11 355.7" stroke="rgba(0, 70, 255, 1)" stroke-width="4"></path><path d="M699.1 350.44Q707.83 348.01 716.56 345.58 725.29 343.14 734.02 340.7 742.75 338.28 751.48 335.85" stroke="rgba(0, 70, 255, 1)" stroke-width="4"></path><path d="M780.39 327.95Q788.55 325.77 796.71 323.59 804.87 321.47 813.04 319.34 821.2 317.28 829.36 315.22 837.52 313.24 845.68 311.25 853.84 309.35 862 307.45 870.17 305.64 878.33 303.84 886.49 302.13 894.65 300.43 902.81 298.84 910.97 297.25 919.14 295.78 927.3 294.3 935.46 292.96 943.62 291.62" stroke="rgba(0, 70, 255, 1)" stroke-width="4"></path><path d="M971.85 287.61Q977.11 286.97 982.36 286.34 987.62 285.76 992.87 285.19 998.13 284.67 1003.38 284.16" stroke="rgba(0, 27, 183, 1)" stroke-width="4"></path><path d="M1032.46 281.99Q1040.66 281.6 1048.85 281.21 1057.05 280.98 1065.25 280.75 1073.45 280.68 1081.64 280.62 1089.84 280.72 1098.04 280.81 1106.23 281.07 1114.43 281.34" stroke="rgba(0, 70, 255, 1)" stroke-width="4"></path><path d="M1132.45 282.28Q1140.98 282.91 1149.51 283.54 1158.04 284.33 1166.57 285.13 1175.1 286.09 1183.63 287.05 1192.16 288.17 1200.68 289.29 1209.21 290.56 1217.74 291.83 1226.27 293.25 1234.8 294.67 1243.33 296.23 1251.86 297.78" stroke="rgba(255, 128, 64, 1)" stroke-width="4"></path><path d="M1282.08 303.92Q1290.81 305.86 1299.54 307.8 1308.27 309.85 1317 311.89 1325.73 314.03 1334.46 316.17 1343.19 318.4 1351.92 320.62" stroke="rgba(0, 70, 255, 1)" stroke-width="4"></path><path d="M1384.48 329.26Q1387.56 330.1 1390.65 330.94 1393.73 331.78 1396.82 332.63 1399.9 333.48 1402.99 334.32 1406.07 335.18 1409.16 336.03 1412.24 336.88 1415.32 337.74 1418.41 338.6 1421.49 339.45 1424.58 340.31 1427.66 341.17 1430.75 342.03 1433.83 342.89 1436.92 343.75 1440 344.62" stroke="rgba(255, 128, 64, 1)" stroke-width="4"></path><path d="M8.55 390.08Q14.52 391.74 20.49 393.41 26.45 395.06 32.42 396.72 38.39 398.36 44.36 400" stroke="rgba(0, 70, 255, 1)" stroke-width="4"></path><path d="M71.09 407.23Q74.6 408.16 78.12 409.09 81.63 410.01 85.14 410.93 88.66 411.83 92.17 412.74" stroke="rgba(0, 70, 255, 1)" stroke-width="4"></path><path d="M113.97 418.22Q122.76 420.33 131.56 422.45 140.35 424.45 149.15 426.46 157.94 428.36 166.73 430.25 175.53 432.02 184.32 433.79 193.12 435.43 201.91 437.06" stroke="rgba(0, 27, 183, 1)" stroke-width="4"></path><path d="M215.88 439.45Q224.53 440.8 233.19 442.14 241.84 443.33 250.5 444.53 259.15 445.55 267.81 446.58 276.47 447.45 285.12 448.31 293.77 449 302.43 449.68 311.09 450.2 319.74 450.71" stroke="rgba(255, 128, 64, 1)" stroke-width="4"></path><path d="M349.9 451.63Q357.47 451.65 365.04 451.68 372.61 451.56 380.19 451.44 387.76 451.19 395.33 450.93 402.9 450.54 410.47 450.15 418.04 449.62 425.62 449.09 433.19 448.42 440.76 447.76 448.33 446.97 455.9 446.17 463.47 445.25 471.04 444.33 478.62 443.28 486.19 442.23 493.76 441.07 501.33 439.9" stroke="rgba(0, 27, 183, 1)" stroke-width="4"></path><path d="M529.58 434.96Q537.48 433.42 545.37 431.87 553.27 430.23 561.17 428.58 569.07 426.84 576.96 425.09 584.86 423.26 592.76 421.43 600.66 419.51 608.55 417.6 616.45 415.62 624.35 413.63 632.24 411.59 640.14 409.54 648.04 407.45 655.94 405.35 663.83 403.21 671.73 401.07 679.63 398.9 687.53 396.73 695.42 394.54 703.32 392.35" stroke="rgba(255, 128, 64, 1)" stroke-width="4"></path><path d="M738.91 382.42Q746.57 380.29 754.22 378.17 761.88 376.07 769.54 373.97 777.19 371.9 784.85 369.82 792.51 367.79 800.16 365.76 807.82 363.78 815.48 361.8 823.13 359.87 830.79 357.95 838.44 356.09 846.1 354.23 853.76 352.44 861.41 350.66 869.07 348.96 876.73 347.26 884.38 345.65 892.04 344.04" stroke="rgba(255, 128, 64, 1)" stroke-width="4"></path><path d="M913.18 339.91Q921.99 338.35 930.8 336.78 939.6 335.37 948.41 333.96 957.22 332.7 966.03 331.44 974.83 330.36 983.64 329.27" stroke="rgba(0, 27, 183, 1)" stroke-width="4"></path><path d="M1021.36 325.78Q1029.32 325.29 1037.29 324.8 1045.25 324.46 1053.22 324.13 1061.18 323.95 1069.15 323.76 1077.11 323.74 1085.08 323.71 1093.04 323.83 1101 323.96 1108.97 324.24 1116.93 324.52 1124.9 324.95 1132.86 325.39 1140.83 325.97 1148.79 326.55 1156.76 327.28 1164.72 328.02" stroke="rgba(255, 128, 64, 1)" stroke-width="4"></path><path d="M1200.09 332.28Q1208.25 333.49 1216.41 334.7 1224.57 336.04 1232.73 337.38 1240.88 338.86 1249.04 340.33 1257.2 341.92 1265.36 343.51" stroke="rgba(0, 70, 255, 1)" stroke-width="4"></path><path d="M1303.71 351.84Q1309.39 353.17 1315.07 354.51 1320.75 355.88 1326.42 357.26 1332.1 358.67 1337.78 360.08 1343.46 361.53 1349.14 362.98 1354.82 364.46 1360.5 365.93 1366.18 367.44 1371.86 368.94 1377.53 370.47 1383.21 372 1388.89 373.54 1394.57 375.09 1400.25 376.65 1405.93 378.21 1411.61 379.79 1417.29 381.36 1422.96 382.94 1428.64 384.52 1434.32 386.11 1440 387.69" stroke="rgba(0, 70, 255, 1)" stroke-width="4"></path><path d="M28.62 438.74Q36.93 441.03 45.23 443.32 53.54 445.57 61.84 447.83 70.15 450.04 78.45 452.25 86.75 454.41 95.06 456.56 103.37 458.65 111.67 460.73 119.98 462.74 128.28 464.75 136.59 466.67 144.89 468.59 153.19 470.41 161.5 472.23 169.81 473.94 178.11 475.65" stroke="rgba(255, 128, 64, 1)" stroke-width="4"></path><path d="M200.9 479.96Q208.97 481.34 217.04 482.72 225.11 483.97 233.18 485.22 241.25 486.33 249.32 487.45 257.39 488.43 265.46 489.4 273.53 490.23 281.61 491.06 289.68 491.74 297.75 492.42 305.82 492.95 313.89 493.48 321.96 493.85 330.03 494.22 338.1 494.44 346.17 494.65" stroke="rgba(0, 70, 255, 1)" stroke-width="4"></path><path d="M359.5 494.77Q367.23 494.7 374.97 494.63 382.7 494.42 390.43 494.21 398.16 493.85 405.9 493.49 413.63 492.99 421.36 492.49 429.1 491.85 436.83 491.21 444.56 490.43 452.29 489.65 460.03 488.74 467.76 487.82" stroke="rgba(0, 70, 255, 1)" stroke-width="4"></path><path d="M498.99 483.36Q506.81 482.05 514.63 480.75 522.45 479.32 530.27 477.9 538.09 476.37 545.91 474.84 553.74 473.21 561.56 471.57 569.38 469.84 577.2 468.12 585.02 466.3 592.84 464.48 600.66 462.59 608.48 460.7 616.3 458.73 624.12 456.77 631.94 454.74 639.77 452.72 647.59 450.64 655.41 448.57 663.23 446.45 671.05 444.34 678.87 442.19 686.69 440.04" stroke="rgba(0, 70, 255, 1)" stroke-width="4"></path><path d="M701.76 435.86Q707.68 434.21 713.6 432.56 719.52 430.9 725.44 429.25 731.36 427.6 737.28 425.95" stroke="rgba(0, 27, 183, 1)" stroke-width="4"></path><path d="M766.76 417.8Q774.88 415.6 782.99 413.4 791.11 411.24 799.23 409.08 807.34 406.98 815.46 404.88 823.57 402.84 831.69 400.8" stroke="rgba(255, 128, 64, 1)" stroke-width="4"></path><path d="M843.56 397.91Q851.87 395.96 860.19 394.02 868.5 392.17 876.81 390.32 885.13 388.57 893.44 386.83 901.75 385.2 910.07 383.57 918.38 382.07 926.69 380.56 935 379.19 943.32 377.82 951.63 376.58 959.94 375.35 968.26 374.26 976.57 373.18" stroke="rgba(255, 128, 64, 1)" stroke-width="4"></path><path d="M995.61 371.06Q1004.1 370.29 1012.6 369.52 1021.09 368.91 1029.58 368.31 1038.08 367.88 1046.57 367.45 1055.07 367.19 1063.56 366.93 1072.05 366.85 1080.55 366.77 1089.04 366.86 1097.53 366.96 1106.03 367.23 1114.52 367.49" stroke="rgba(0, 70, 255, 1)" stroke-width="4"></path><path d="M1148.15 369.58Q1155.78 370.27 1163.4 370.96 1171.03 371.78 1178.65 372.61 1186.28 373.56 1193.9 374.51 1201.53 375.59 1209.15 376.67 1216.78 377.86 1224.4 379.06 1232.03 380.37 1239.65 381.68 1247.28 383.1 1254.9 384.52" stroke="rgba(0, 27, 183, 1)" stroke-width="4"></path><path d="M1265.53 386.62Q1273.63 388.31 1281.73 390 1289.83 391.8 1297.94 393.59 1306.04 395.48 1314.14 397.36 1322.24 399.33 1330.34 401.3 1338.44 403.34 1346.54 405.39 1354.64 407.5 1362.75 409.6 1370.85 411.76 1378.95 413.92 1387.05 416.12 1395.15 418.32" stroke="rgba(255, 128, 64, 1)" stroke-width="4"></path><path d="M1413.98 423.52Q1415.61 423.97 1417.23 424.42 1418.86 424.87 1420.49 425.33 1422.11 425.78 1423.74 426.23 1425.36 426.68 1426.99 427.14 1428.62 427.59 1430.24 428.05 1431.87 428.5 1433.49 428.95 1435.12 429.41 1436.75 429.86 1438.37 430.32 1440 430.77" stroke="rgba(255, 128, 64, 1)" stroke-width="4"></path><path d="M23.34 480.35Q31.29 482.55 39.24 484.75 47.18 486.92 55.13 489.09 63.08 491.23 71.03 493.37 78.98 495.45 86.93 497.54 94.87 499.57 102.82 501.61 110.77 503.57 118.72 505.54 126.67 507.42 134.61 509.31 142.56 511.12 150.51 512.92 158.46 514.63 166.41 516.34 174.36 517.95 182.3 519.55 190.25 521.05 198.2 522.55" stroke="rgba(255, 128, 64, 1)" stroke-width="4"></path><path d="M223.26 526.79Q231.45 528.01 239.64 529.22 247.83 530.3 256.03 531.37 264.22 532.3 272.41 533.23 280.6 534.01 288.79 534.78 296.98 535.4 305.18 536.02 313.37 536.49 321.56 536.95 329.75 537.25 337.94 537.55 346.13 537.69 354.32 537.83 362.52 537.8 370.71 537.78 378.9 537.59 387.09 537.4" stroke="rgba(0, 27, 183, 1)" stroke-width="4"></path><path d="M411.56 536.23Q419.56 535.66 427.56 535.09 435.56 534.36 443.56 533.64 451.56 532.77 459.56 531.9 467.56 530.89 475.56 529.88 483.56 528.73 491.56 527.59 499.56 526.31 507.56 525.03 515.56 523.63 523.56 522.23 531.56 520.71 539.56 519.19" stroke="rgba(255, 128, 64, 1)" stroke-width="4"></path><path d="M570.33 512.73Q579.97 510.53 589.61 508.33 599.25 506 608.89 503.67 618.53 501.24 628.17 498.81" stroke="rgba(0, 27, 183, 1)" stroke-width="4"></path><path d="M654.76 491.82Q663 489.59 671.24 487.36 679.48 485.09 687.73 482.83 695.97 480.54 704.21 478.25 712.45 475.95 720.69 473.65 728.93 471.35 737.17 469.06 745.41 466.77 753.66 464.48 761.9 462.22 770.14 459.96 778.38 457.73 786.62 455.5" stroke="rgba(0, 70, 255, 1)" stroke-width="4"></path><path d="M824.18 445.75Q832.29 443.75 840.4 441.75 848.51 439.83 856.62 437.91 864.73 436.09 872.84 434.26 880.95 432.53 889.06 430.8 897.17 429.18 905.28 427.56 913.39 426.06 921.51 424.55 929.62 423.17 937.73 421.79 945.84 420.54 953.95 419.28 962.06 418.17 970.17 417.06 978.28 416.08 986.39 415.11 994.5 414.29 1002.61 413.46 1010.72 412.79 1018.83 412.11" stroke="rgba(0, 27, 183, 1)" stroke-width="4"></path><path d="M1038.53 410.89Q1046.65 410.56 1054.77 410.23 1062.88 410.06 1071 409.9 1079.12 409.89 1087.24 409.88 1095.36 410.03 1103.47 410.18 1111.59 410.49 1119.71 410.8 1127.83 411.27 1135.94 411.74 1144.06 412.37 1152.18 412.99 1160.3 413.77 1168.42 414.55 1176.53 415.48 1184.65 416.4 1192.77 417.47 1200.89 418.54 1209.01 419.75 1217.12 420.96 1225.24 422.31 1233.36 423.65" stroke="rgba(255, 128, 64, 1)" stroke-width="4"></path><path d="M1247.28 426.15Q1254.78 427.6 1262.28 429.04 1269.79 430.59 1277.29 432.13 1284.79 433.76 1292.29 435.4 1299.8 437.11 1307.3 438.83 1314.8 440.61 1322.3 442.4 1329.8 444.26 1337.31 446.12 1344.81 448.04 1352.31 449.95 1359.81 451.92 1367.32 453.89 1374.82 455.9 1382.32 457.91 1389.82 459.95 1397.33 462 1404.83 464.07 1412.33 466.14" stroke="rgba(0, 70, 255, 1)" stroke-width="4"></path><path d="M1.39 517.31Q8.68 519.34 15.97 521.38 23.25 523.4 30.54 525.43 37.83 527.43 45.12 529.44" stroke="rgba(255, 128, 64, 1)" stroke-width="4"></path><path d="M82.28 539.41Q83.68 539.77 85.07 540.14 86.47 540.5 87.87 540.86 89.26 541.22 90.66 541.58" stroke="rgba(0, 27, 183, 1)" stroke-width="4"></path><path d="M101.02 544.23Q108.97 546.2 116.92 548.18 124.87 550.07 132.82 551.97 140.78 553.79 148.73 555.6 156.68 557.32 164.63 559.04" stroke="rgba(0, 27, 183, 1)" stroke-width="4"></path><path d="M179.95 562.17Q187.72 563.65 195.48 565.13 203.25 566.5 211.01 567.87 218.78 569.12 226.55 570.38 234.31 571.51 242.08 572.64 249.84 573.64 257.61 574.64 265.38 575.51 273.14 576.38 280.91 577.11 288.67 577.85 296.44 578.44 304.2 579.04 311.97 579.49 319.74 579.94 327.5 580.24 335.27 580.55 343.03 580.71 350.8 580.87" stroke="rgba(0, 70, 255, 1)" stroke-width="4"></path><path d="M363.95 580.91Q371.49 580.81 379.02 580.7 386.56 580.46 394.1 580.22 401.63 579.84 409.17 579.46 416.71 578.94 424.24 578.43 431.78 577.78 439.31 577.13 446.85 576.35 454.39 575.57 461.92 574.67 469.46 573.76 477 572.73 484.53 571.7 492.07 570.56 499.61 569.41 507.14 568.15 514.68 566.89" stroke="rgba(0, 27, 183, 1)" stroke-width="4"></path><path d="M532.09 563.71Q540.77 561.99 549.46 560.27 558.14 558.43 566.83 556.58 575.51 554.62 584.19 552.67 592.88 550.61 601.56 548.54 610.25 546.39 618.93 544.24 627.62 542.01 636.3 539.78" stroke="rgba(0, 70, 255, 1)" stroke-width="4"></path><path d="M668.25 531.25Q676.44 529.01 684.62 526.76 692.81 524.49 700.99 522.23 709.18 519.94 717.36 517.66 725.55 515.37 733.73 513.09 741.92 510.82 750.11 508.54 758.29 506.29 766.48 504.03 774.66 501.81 782.85 499.59 791.03 497.42 799.22 495.24 807.4 493.12 815.59 491 823.77 488.94 831.96 486.89" stroke="rgba(255, 128, 64, 1)" stroke-width="4"></path><path d="M862.06 479.74Q869.7 478.05 877.34 476.36 884.98 474.75 892.62 473.15 900.25 471.64 907.89 470.14 915.53 468.73 923.17 467.33 930.81 466.04 938.45 464.75 946.09 463.57 953.73 462.39 961.37 461.34 969 460.28 976.64 459.35 984.28 458.42 991.92 457.62 999.56 456.82" stroke="rgba(0, 27, 183, 1)" stroke-width="4"></path><path d="M1025.31 454.74Q1033.36 454.28 1041.41 453.83 1049.46 453.53 1057.5 453.23 1065.55 453.09 1073.6 452.95 1081.65 452.96 1089.7 452.98 1097.75 453.15 1105.8 453.33 1113.84 453.66 1121.89 453.99 1129.94 454.48 1137.99 454.96 1146.04 455.6 1154.09 456.24 1162.14 457.03 1170.19 457.81 1178.23 458.75 1186.28 459.68 1194.33 460.76 1202.38 461.83" stroke="rgba(255, 128, 64, 1)" stroke-width="4"></path><path d="M1216.95 464.01Q1221.58 464.76 1226.22 465.51 1230.85 466.3 1235.48 467.1 1240.12 467.93 1244.75 468.76" stroke="rgba(255, 128, 64, 1)" stroke-width="4"></path><path d="M1274.41 474.6Q1281.31 476.08 1288.21 477.57 1295.11 479.12 1302.01 480.67 1308.91 482.29 1315.81 483.91 1322.71 485.59 1329.61 487.27 1336.51 489.01 1343.41 490.74 1350.31 492.52 1357.2 494.3 1364.1 496.12 1371 497.95 1377.9 499.8 1384.8 501.66 1391.7 503.54 1398.6 505.43 1405.5 507.33 1412.4 509.23 1419.3 511.15 1426.2 513.07 1433.1 515 1440 516.92" stroke="rgba(0, 27, 183, 1)" stroke-width="4"></path></g><defs><clipPath id="SvgjsClipPath1023"><rect width="1440" height="560" x="0" y="0"></rect></clipPath><linearGradient x1="15.28%" y1="-39.29%" x2="84.72%" y2="139.29%" gradientUnits="userSpaceOnUse" id="SvgjsLinearGradient1024"><stop stop-color="#1a1a2e" offset="0"></stop><stop stop-color="#10101e" offset="1"></stop></linearGradient></defs></svg>